<svg width="195.000000" height="39.000000" viewBox="0 0 195 39" fill="none" xmlns="http://www.w3.org/2000/svg" xmlns:xlink="http://www.w3.org/1999/xlink">
	<desc>
			Created with Pixso.
	</desc>
	<defs>
		<clipPath id="clip501_190">
			<rect id="setting 1" width="37.000000" height="37.000000" transform="translate(0.000000 1.000000)" fill="white" fill-opacity="0"/>
		</clipPath>
	</defs>
	<path id="Dashboard" d="M108.85 15Q107.64 14.38 106.12 14.38Q104.69 14.38 103.52 14.92Q102.5 15.38 101.83 16.16Q101.74 16.27 101.65 16.38L101.65 9.76L98.01 9.76L98.01 29L101.65 29L101.65 21.04Q101.65 19.35 102.49 18.43Q102.51 18.41 102.52 18.4Q102.73 18.18 102.97 18.01Q103.75 17.47 104.9 17.47Q106 17.47 106.76 17.99Q107.02 18.16 107.24 18.4Q108.1 19.32 108.1 21.04L108.1 29L111.74 29L111.74 20.55Q111.74 18.6 111.02 17.21Q110.52 16.22 109.74 15.58Q109.41 15.31 109.03 15.1Q108.94 15.05 108.85 15ZM119.22 16.52Q119.16 16.61 119.1 16.7L119.1 9.76L115.46 9.76L115.46 29L119.1 29L119.1 26.94Q119.16 27.03 119.23 27.12Q119.93 28.01 121.03 28.6Q122.24 29.23 123.86 29.23Q125.05 29.23 126.09 28.84Q126.66 28.63 127.19 28.3Q127.54 28.08 127.85 27.82Q128.89 26.96 129.56 25.66Q130.43 23.95 130.43 21.74Q130.43 19.53 129.56 17.85Q128.9 16.59 127.89 15.77Q127.56 15.5 127.19 15.27Q126.7 14.97 126.17 14.77Q125.09 14.36 123.86 14.36Q122.27 14.36 121.03 15.01Q119.91 15.6 119.22 16.52ZM178.78 17.87Q177.91 19.56 177.91 21.74Q177.91 23.95 178.78 25.66Q179.45 26.96 180.48 27.81Q180.8 28.08 181.16 28.3Q181.8 28.69 182.5 28.92Q183.44 29.23 184.48 29.23Q186.09 29.23 187.31 28.58Q188.36 28.03 189.01 27.17Q189.12 27.02 189.22 26.86L189.22 29L192.91 29L192.91 9.76L189.22 9.76L189.22 16.59Q189.18 16.55 189.15 16.5Q188.41 15.55 187.19 14.97Q186.53 14.65 185.83 14.5Q185.19 14.36 184.51 14.36Q183.3 14.36 182.24 14.75Q181.68 14.96 181.16 15.27Q180.8 15.49 180.48 15.74Q179.45 16.58 178.78 17.87ZM58.17 11.96Q56 10.85 53.13 10.85L46.79 10.85L46.79 29L53.13 29Q56 29 58.17 27.88Q59.5 27.19 60.46 26.16Q61.06 25.51 61.52 24.72Q62.7 22.68 62.7 19.95Q62.7 17.26 61.55 15.21Q61.54 15.18 61.52 15.15Q61.02 14.27 60.34 13.57Q59.42 12.61 58.17 11.96ZM57.09 24.64Q55.57 25.9 53.01 25.9L50.43 25.9L50.43 13.91L53.01 13.91Q55.5 13.91 57.01 15.13Q57.23 15.31 57.42 15.51Q57.6 15.7 57.76 15.9Q58.99 17.44 58.99 19.95Q58.99 22.46 57.76 23.97Q57.6 24.17 57.42 24.34Q57.27 24.5 57.09 24.64ZM65.62 17.87Q64.75 19.56 64.75 21.74Q64.75 23.95 65.62 25.66Q66.31 27 67.39 27.87Q67.68 28.1 67.99 28.3Q68.6 28.68 69.26 28.9Q70.23 29.23 71.3 29.23Q72.92 29.23 74.15 28.57Q75.39 27.9 76.09 26.89L76.09 29L79.76 29L79.76 14.59L76.09 14.59L76.09 16.64Q75.36 15.66 74.15 15.01Q72.94 14.36 71.33 14.36Q70.11 14.36 69.04 14.76Q68.5 14.96 67.99 15.27Q67.67 15.46 67.39 15.69Q66.31 16.54 65.62 17.87ZM85.92 28.6Q87.32 29.23 89.09 29.23Q90.81 29.23 92.09 28.67Q93.35 28.13 94.03 27.17Q94.05 27.15 94.07 27.12Q94.36 26.71 94.53 26.25Q94.76 25.61 94.76 24.89Q94.74 23.54 94.07 22.69Q94.03 22.64 93.99 22.59Q93.47 21.97 92.81 21.59Q92.54 21.42 92.23 21.3Q91.22 20.88 89.66 20.5Q88.13 20.1 87.4 19.73Q86.95 19.49 86.78 19.13Q86.67 18.9 86.67 18.62Q86.67 18.29 86.82 18.03Q86.95 17.78 87.21 17.61Q87.74 17.25 88.73 17.25Q89.8 17.25 90.43 17.75Q90.68 17.95 90.84 18.2Q91.1 18.59 91.15 19.12L94.63 19.12Q94.53 17.7 93.85 16.66Q93.48 16.1 92.94 15.65Q92.91 15.62 92.87 15.59Q91.35 14.36 88.83 14.36Q87.09 14.36 85.8 14.93Q84.52 15.5 83.83 16.48Q83.83 16.49 83.82 16.49Q83.48 16.98 83.31 17.53Q83.14 18.07 83.14 18.67Q83.14 20.07 83.82 20.93Q83.85 20.96 83.87 20.99Q84.32 21.5 84.86 21.86Q85.23 22.1 85.64 22.27Q86.67 22.68 88.29 23.07Q89.85 23.49 90.56 23.83Q90.99 24.05 91.17 24.39Q91.27 24.61 91.27 24.89Q91.27 25.13 91.19 25.34Q91.06 25.69 90.69 25.95Q90.11 26.37 89.07 26.37Q88.12 26.37 87.45 25.94Q87.36 25.88 87.28 25.82Q86.85 25.49 86.64 25.05Q86.51 24.77 86.46 24.44L82.8 24.44Q82.83 25 83 25.52Q83.22 26.23 83.7 26.86Q83.72 26.89 83.74 26.92Q84.55 27.97 85.92 28.6ZM136.56 28.59Q138.01 29.23 139.74 29.23Q141.52 29.23 143.01 28.57Q143.28 28.45 143.55 28.31Q144.35 27.88 144.99 27.28Q145.72 26.59 146.25 25.69Q146.34 25.54 146.42 25.38Q147.25 23.81 147.25 21.79Q147.25 19.72 146.39 18.11Q146.34 18 146.28 17.89Q145.76 16.99 145.03 16.31Q144.4 15.71 143.61 15.28Q143.27 15.1 142.91 14.95Q141.5 14.36 139.85 14.36Q138.18 14.36 136.77 14.95Q136.41 15.1 136.07 15.28Q135.31 15.7 134.69 16.27Q133.94 16.97 133.4 17.89Q133.35 17.98 133.3 18.07Q132.43 19.7 132.43 21.79Q132.43 24 133.37 25.68L133.38 25.69Q133.91 26.64 134.67 27.35Q135.26 27.9 135.99 28.31Q136.27 28.46 136.56 28.59ZM150.12 17.87Q149.25 19.56 149.25 21.74Q149.25 23.95 150.12 25.66Q150.81 27 151.89 27.87Q152.18 28.1 152.49 28.3Q153.1 28.68 153.76 28.9Q154.73 29.23 155.81 29.23Q157.42 29.23 158.65 28.57Q159.89 27.9 160.59 26.89L160.59 29L164.26 29L164.26 14.59L160.59 14.59L160.59 16.64Q159.86 15.66 158.65 15.01Q157.44 14.36 155.83 14.36Q154.61 14.36 153.54 14.76Q153 14.96 152.49 15.27Q152.17 15.46 151.89 15.69Q150.81 16.54 150.12 17.87ZM172.77 15.59Q172.16 16.11 171.72 16.83L171.72 14.59L168.08 14.59L168.08 29L171.72 29L171.72 21.82Q171.72 19.82 172.59 19.01Q173.46 18.2 175.18 18.2L176.14 18.2L176.14 14.38Q174.85 14.38 173.82 14.89Q173.68 14.96 173.55 15.04Q173.13 15.28 172.77 15.59ZM140.69 25.94Q140.23 26.06 139.74 26.06Q138.87 26.06 138.17 25.72Q137.61 25.44 137.15 24.95Q136.13 23.85 136.13 21.79Q136.13 19.81 137.11 18.71Q137.14 18.67 137.18 18.64Q137.67 18.12 138.28 17.84Q138.96 17.53 139.79 17.53Q140.6 17.53 141.28 17.83Q141.91 18.1 142.43 18.64Q142.49 18.7 142.55 18.77Q143.51 19.86 143.51 21.79Q143.51 23.17 142.99 24.13Q142.57 24.9 141.93 25.37Q141.77 25.48 141.6 25.58Q141.16 25.82 140.69 25.94ZM75.57 19.52Q76.09 20.47 76.09 21.79Q76.09 23.12 75.57 24.07Q75.21 24.73 74.66 25.18Q74.43 25.37 74.17 25.52Q73.72 25.78 73.24 25.91Q72.77 26.03 72.27 26.03Q71.86 26.03 71.46 25.94Q70.92 25.81 70.41 25.51Q70.25 25.41 70.1 25.3Q69.44 24.81 69.01 24.02Q68.47 23.04 68.47 21.74Q68.47 20.44 69.01 19.49Q69.46 18.69 70.13 18.22Q70.26 18.13 70.4 18.05Q70.74 17.85 71.11 17.73Q71.66 17.56 72.27 17.56Q72.77 17.56 73.24 17.68Q73.72 17.81 74.17 18.06Q74.42 18.21 74.64 18.39Q75.2 18.84 75.57 19.52ZM126.18 19.49Q126.71 20.44 126.71 21.74Q126.71 23.07 126.18 24.03Q125.76 24.79 125.13 25.27Q124.96 25.4 124.78 25.51Q124.35 25.77 123.88 25.9Q123.41 26.03 122.89 26.03Q122.46 26.03 122.05 25.93Q121.52 25.81 121.03 25.52Q120.86 25.42 120.69 25.3Q120.05 24.82 119.63 24.06Q119.1 23.09 119.1 21.79Q119.1 20.5 119.63 19.54Q120.06 18.75 120.72 18.27Q120.87 18.16 121.03 18.06Q121.52 17.78 122.05 17.65Q122.46 17.56 122.89 17.56Q123.46 17.56 123.98 17.71Q124.39 17.83 124.78 18.05Q124.95 18.15 125.11 18.27Q125.75 18.73 126.18 19.49ZM160.07 19.52Q160.59 20.47 160.59 21.79Q160.59 23.12 160.07 24.07Q159.71 24.73 159.16 25.18Q158.93 25.37 158.67 25.52Q158.22 25.78 157.74 25.91Q157.27 26.03 156.77 26.03Q156.36 26.03 155.96 25.94Q155.42 25.81 154.91 25.51Q154.75 25.41 154.6 25.3Q153.94 24.81 153.51 24.02Q152.97 23.04 152.97 21.74Q152.97 20.44 153.51 19.49Q153.96 18.69 154.63 18.22Q154.76 18.13 154.9 18.05Q155.24 17.85 155.62 17.73Q156.16 17.56 156.77 17.56Q157.27 17.56 157.74 17.68Q158.22 17.81 158.67 18.06Q158.92 18.21 159.14 18.39Q159.7 18.84 160.07 19.52ZM188.72 19.52Q189.24 20.47 189.24 21.79Q189.24 23.12 188.72 24.07Q188.36 24.73 187.82 25.18Q187.58 25.37 187.32 25.52Q186.87 25.78 186.39 25.91Q185.92 26.03 185.42 26.03Q185.01 26.03 184.61 25.94Q184.07 25.81 183.56 25.51Q183.4 25.41 183.25 25.3Q182.59 24.81 182.16 24.02Q181.63 23.04 181.63 21.74Q181.63 20.44 182.16 19.49Q182.61 18.69 183.28 18.22Q183.41 18.13 183.55 18.05Q183.9 17.85 184.27 17.73Q184.82 17.56 185.42 17.56Q185.92 17.56 186.39 17.68Q186.87 17.81 187.32 18.06Q187.57 18.21 187.79 18.39Q188.35 18.84 188.72 19.52Z" fill="#000000" fill-opacity="1.000000" fill-rule="evenodd"/>
	<rect id="setting 1" width="37.000000" height="37.000000" transform="translate(0.000000 1.000000)" fill="#FFFFFF" fill-opacity="0"/>
	<g clip-path="url(#clip501_190)">
		<path id="Vector" d="M18.5 35.88C17.46 35.88 16.41 35.65 15.6 35.17L7.12 30.29C3.66 27.96 3.45 27.6 3.45 23.95L3.45 15.04C3.45 11.39 3.65 11.03 7.04 8.73L15.58 3.8C17.2 2.86 19.74 2.86 21.36 3.8L29.87 8.7C33.33 11.03 33.54 11.39 33.54 15.04L33.54 23.93C33.54 27.59 33.34 27.94 29.95 30.24L21.41 35.17C20.58 35.65 19.53 35.88 18.5 35.88ZM18.5 5.42C17.85 5.42 17.22 5.54 16.77 5.8L8.29 10.71C5.78 12.4 5.78 12.4 5.78 15.04L5.78 23.93C5.78 26.57 5.78 26.57 8.35 28.31L16.77 33.17C17.68 33.69 19.33 33.69 20.24 33.17L28.72 28.27C31.21 26.57 31.21 26.57 31.21 23.93L31.21 15.04C31.21 12.4 31.21 12.4 28.64 10.66L20.22 5.8C19.77 5.54 19.14 5.42 18.5 5.42Z" fill="#000000" fill-opacity="1.000000" fill-rule="nonzero"/>
		<path id="Vector" d="M18.5 25.28C15.3 25.28 12.71 22.69 12.71 19.5C12.71 16.3 15.3 13.71 18.5 13.71C21.69 13.71 24.28 16.3 24.28 19.5C24.28 22.69 21.69 25.28 18.5 25.28ZM18.5 16.03C16.58 16.03 15.03 17.58 15.03 19.5C15.03 21.41 16.58 22.96 18.5 22.96C20.41 22.96 21.96 21.41 21.96 19.5C21.96 17.58 20.41 16.03 18.5 16.03Z" fill="#000000" fill-opacity="1.000000" fill-rule="nonzero"/>
	</g>
</svg>
